<svg xmlns="http://www.w3.org/2000/svg" id="Layer_1" data-name="Layer 1" viewBox="0 0 500 500"><defs><style>.cls-1{fill:#fff;stroke:#ed1c24;stroke-miterlimit:10;stroke-width:3px}.cls-2{fill:#6b6c6c}.cls-3{fill:#e6e6e6}.cls-4{fill:#b7b7b7}.cls-5{fill:#f4f4f4}.cls-6{fill:#333}.cls-7{fill:#707070}.cls-8{fill:#ddd}.cls-9{fill:#ed1c24}</style></defs><title>Certbot-Icons</title><circle cx="248.6" cy="250.36" r="245" class="cls-1"/><g id="Group_2251" data-name="Group 2251"><path id="Path_3728" d="M154.71,139.64l-55,62.7V341.05l55-62.72Z" class="cls-2" data-name="Path 3728"/><path id="Path_3729" d="M156.42,361.07l.14-139.1-57-19.67L99.4,341.41Z" class="cls-3" data-name="Path 3729"/><path id="Path_3730" d="M211.1,159.59l-55,62.73V361l55-62.7Z" class="cls-4" data-name="Path 3730"/><path id="Path_3731" d="M154.64,139.64l56.46,20L156.49,222,99.4,202.32Z" class="cls-5" data-name="Path 3731"/><path id="Path_3732" d="M150.25,264.58l-45.87-18.07v-5.89l45.87,18.09Z" class="cls-6" data-name="Path 3732"/><path id="Path_3733" d="M150.28,277.39l-45.69-18v-5.72l45.69,18Z" class="cls-6" data-name="Path 3733"/><path id="Path_3734" d="M150.25,292.08,104.38,274V268.1l45.87,18.09Z" class="cls-6" data-name="Path 3734"/><path id="Path_3735" d="M150.28,304.89l-45.69-18v-5.73l45.69,18Z" class="cls-6" data-name="Path 3735"/><path id="Path_3736" d="M150.25,264.58l-45.87-18.07v-5.89l45.87,18.09Z" class="cls-7" data-name="Path 3736"/><path id="Path_3737" d="M150.28,277.39l-45.69-18v-5.72l45.69,18Z" class="cls-7" data-name="Path 3737"/><path id="Path_3738" d="M150.25,292.08,104.38,274V268.1l45.87,18.09Z" class="cls-7" data-name="Path 3738"/><path id="Path_3739" d="M150.28,304.89l-45.69-18v-5.73l45.69,18Z" class="cls-7" data-name="Path 3739"/><path id="Path_3740" d="M154.64,139.64l56.46,20L156.49,222,99.4,202.32Z" class="cls-8" data-name="Path 3740"/><path id="Path_3741" d="M146.8,308.76c1.73,0,4.72,1.41,4.72,3.14a3.15,3.15,0,0,1-3.15,3.15c-1.74,0-4.72-1.41-4.72-3.15A3.15,3.15,0,0,1,146.8,308.76Z" class="cls-9" data-name="Path 3741"/></g><g id="Group_2251-2" data-name="Group 2251"><path id="Path_3728-2" d="M248.06,139.64l-55,62.7V341.05l55-62.72Z" class="cls-2" data-name="Path 3728"/><path id="Path_3729-2" d="M249.78,361.07l.13-139.1-57-19.67-.14,139.11Z" class="cls-3" data-name="Path 3729"/><path id="Path_3730-2" d="M304.46,159.59l-55,62.73V361l55-62.7Z" class="cls-4" data-name="Path 3730"/><path id="Path_3731-2" d="M248,139.64l56.45,20L249.84,222l-57.09-19.66Z" class="cls-5" data-name="Path 3731"/><path id="Path_3732-2" d="M243.6,264.58l-45.87-18.07v-5.89l45.87,18.09Z" class="cls-6" data-name="Path 3732"/><path id="Path_3733-2" d="M243.63,277.39l-45.69-18v-5.72l45.69,18Z" class="cls-6" data-name="Path 3733"/><path id="Path_3734-2" d="M243.6,292.08,197.73,274V268.1l45.87,18.09Z" class="cls-6" data-name="Path 3734"/><path id="Path_3735-2" d="M243.63,304.89l-45.69-18v-5.73l45.69,18Z" class="cls-6" data-name="Path 3735"/><path id="Path_3736-2" d="M243.6,264.58l-45.87-18.07v-5.89l45.87,18.09Z" class="cls-7" data-name="Path 3736"/><path id="Path_3737-2" d="M243.63,277.39l-45.69-18v-5.72l45.69,18Z" class="cls-7" data-name="Path 3737"/><path id="Path_3738-2" d="M243.6,292.08,197.73,274V268.1l45.87,18.09Z" class="cls-7" data-name="Path 3738"/><path id="Path_3739-2" d="M243.63,304.89l-45.69-18v-5.73l45.69,18Z" class="cls-7" data-name="Path 3739"/><path id="Path_3740-2" d="M248,139.64l56.45,20L249.84,222l-57.09-19.66Z" class="cls-8" data-name="Path 3740"/><path id="Path_3741-2" d="M240.15,308.76c1.74,0,4.72,1.41,4.72,3.14a3.15,3.15,0,0,1-3.15,3.15c-1.74,0-4.72-1.41-4.72-3.15A3.15,3.15,0,0,1,240.15,308.76Z" class="cls-9" data-name="Path 3741"/></g><g id="Group_2251-3" data-name="Group 2251"><path id="Path_3728-3" d="M341.42,139.64l-55,62.7V341.05l55-62.72Z" class="cls-2" data-name="Path 3728"/><path id="Path_3729-3" d="M343.13,361.07l.13-139.1-57-19.67-.14,139.11Z" class="cls-3" data-name="Path 3729"/><path id="Path_3730-3" d="M397.81,159.59l-55,62.73V361l55-62.7Z" class="cls-4" data-name="Path 3730"/><path id="Path_3731-3" d="M341.35,139.64l56.45,20L343.2,222l-57.1-19.66Z" class="cls-5" data-name="Path 3731"/><path id="Path_3732-3" d="M337,264.58l-45.86-18.07v-5.89L337,258.71Z" class="cls-6" data-name="Path 3732"/><path id="Path_3733-3" d="M337,277.39l-45.7-18v-5.72l45.7,18Z" class="cls-6" data-name="Path 3733"/><path id="Path_3734-3" d="M337,292.08,291.09,274V268.1L337,286.19Z" class="cls-6" data-name="Path 3734"/><path id="Path_3735-3" d="M337,304.89l-45.7-18v-5.73l45.7,18Z" class="cls-6" data-name="Path 3735"/><path id="Path_3736-3" d="M337,264.58l-45.86-18.07v-5.89L337,258.71Z" class="cls-7" data-name="Path 3736"/><path id="Path_3737-3" d="M337,277.39l-45.7-18v-5.72l45.7,18Z" class="cls-7" data-name="Path 3737"/><path id="Path_3738-3" d="M337,292.08,291.09,274V268.1L337,286.19Z" class="cls-7" data-name="Path 3738"/><path id="Path_3739-3" d="M337,304.89l-45.7-18v-5.73l45.7,18Z" class="cls-7" data-name="Path 3739"/><path id="Path_3740-3" d="M341.35,139.64l56.45,20L343.2,222l-57.1-19.66Z" class="cls-8" data-name="Path 3740"/><path id="Path_3741-3" d="M333.5,308.76c1.74,0,4.72,1.41,4.72,3.14a3.15,3.15,0,0,1-3.15,3.15c-1.73,0-4.71-1.41-4.71-3.15A3.14,3.14,0,0,1,333.5,308.76Z" class="cls-9" data-name="Path 3741"/></g></svg>