<svg xmlns="http://www.w3.org/2000/svg" id="Layer_1" data-name="Layer 1" viewBox="0 0 500 500"><defs><style>.cls-1{fill:#6b6c6c}.cls-2{fill:#e6e6e6}.cls-3{fill:#b7b7b7}.cls-4{fill:#f4f4f4}.cls-5{fill:#333}.cls-6{fill:#707070}.cls-7{fill:#ddd}.cls-8{fill:#ed1c24}</style></defs><title>Certbot-Icons</title><g id="Group_2251" data-name="Group 2251"><path id="Path_3728" d="M251.05,10,131.63,146.07v301L251.05,311Z" class="cls-1" data-name="Path 3728"/><path id="Path_3729" d="M254.77,490.57l.29-301.9L131.3,146,131,447.89Z" class="cls-2" data-name="Path 3729"/><path id="Path_3730" d="M373.43,53.3,254,189.44v301L373.43,354.37Z" class="cls-3" data-name="Path 3730"/><path id="Path_3731" d="M250.9,10,373.43,53.31,254.91,188.7,131,146Z" class="cls-4" data-name="Path 3731"/><path id="Path_3732" d="M241.37,281.15l-99.56-39.21V229.15l99.56,39.26Z" class="cls-5" data-name="Path 3732"/><path id="Path_3733" d="M241.43,309l-99.17-39.1V257.43l99.17,39.11Z" class="cls-5" data-name="Path 3733"/><path id="Path_3734" d="M241.37,340.83l-99.56-39.26V288.8l99.56,39.26Z" class="cls-5" data-name="Path 3734"/><path id="Path_3735" d="M241.43,368.63l-99.17-39.11V317.09l99.17,39.11Z" class="cls-5" data-name="Path 3735"/><path id="Path_3736" d="M241.37,281.15l-99.56-39.21V229.15l99.56,39.26Z" class="cls-6" data-name="Path 3736"/><path id="Path_3737" d="M241.43,309l-99.17-39.1V257.43l99.17,39.11Z" class="cls-6" data-name="Path 3737"/><path id="Path_3738" d="M241.37,340.83l-99.56-39.26V288.8l99.56,39.26Z" class="cls-6" data-name="Path 3738"/><path id="Path_3739" d="M241.43,368.63l-99.17-39.11V317.09l99.17,39.11Z" class="cls-6" data-name="Path 3739"/><path id="Path_3740" d="M250.9,10,373.43,53.31,254.91,188.7,131,146Z" class="cls-7" data-name="Path 3740"/><path id="Path_3741" d="M233.87,377c3.77,0,10.24,3.06,10.24,6.83a6.82,6.82,0,0,1-6.82,6.83c-3.78,0-10.25-3.06-10.25-6.83A6.83,6.83,0,0,1,233.87,377Z" class="cls-8" data-name="Path 3741"/></g></svg>